<svg xmlns="http://www.w3.org/2000/svg" viewBox="0 0 300 88.89"><title>アセット 30</title><g id="レイヤー_2" data-name="レイヤー 2"><g id="PC"><path d="M289.33,88.89H10.51A10.53,10.53,0,0,1,0,78.37V10.5A10.52,10.52,0,0,1,10.51,0H289.33A10.66,10.66,0,0,1,300,10.5V78.37a10.68,10.68,0,0,1-10.67,10.52Z" style="fill:#a6a6a6"/><path d="M297.85,78.37a8.51,8.51,0,0,1-8.52,8.51H10.51A8.52,8.52,0,0,1,2,78.37V10.5A8.53,8.53,0,0,1,10.51,2H289.33a8.52,8.52,0,0,1,8.52,8.52V78.37Z"/><path d="M67,44c-.07-7.16,5.86-10.65,6.14-10.81A13.19,13.19,0,0,0,62.7,27.54c-4.37-.46-8.61,2.62-10.84,2.62s-5.7-2.57-9.39-2.49a13.84,13.84,0,0,0-11.64,7.1c-5,8.72-1.28,21.53,3.54,28.58,2.41,3.45,5.23,7.3,8.92,7.17s5-2.3,9.32-2.3,5.58,2.3,9.35,2.22S68.27,67,70.6,63.47a28.54,28.54,0,0,0,4-8.05A12.45,12.45,0,0,1,67,44Z" style="fill:#fff"/><path d="M59.84,22.9a12.69,12.69,0,0,0,2.9-9.09,12.91,12.91,0,0,0-8.35,4.32c-1.79,2.09-3.39,5.53-3,8.75C54.57,27.12,57.81,25.29,59.84,22.9Z" style="fill:#fff"/><path d="M120.05,38.17h-4.46l-2.44-7.68h-8.49l-2.33,7.68H98L106.4,12h5.2Zm-7.64-10.9-2.21-6.83q-.35-1-1.32-4.92h-.08q-.39,1.67-1.24,4.92l-2.17,6.83Z" style="fill:#fff"/><path d="M141.65,28.52a10.67,10.67,0,0,1-2.61,7.6,7.65,7.65,0,0,1-5.81,2.48,5.81,5.81,0,0,1-5.38-2.68v9.89h-4.19V25.52q0-3-.16-6.19h3.68l.23,3h.08a7.45,7.45,0,0,1,11.93-.74A10.39,10.39,0,0,1,141.65,28.52Zm-4.26.16a7.79,7.79,0,0,0-1.24-4.54,4.29,4.29,0,0,0-3.65-1.86,4.35,4.35,0,0,0-2.81,1A4.76,4.76,0,0,0,128,26a5.41,5.41,0,0,0-.19,1.28v3.14a5,5,0,0,0,1.26,3.47,4.18,4.18,0,0,0,3.28,1.41,4.29,4.29,0,0,0,3.68-1.82A8,8,0,0,0,137.39,28.67Z" style="fill:#fff"/><path d="M163.33,28.52a10.68,10.68,0,0,1-2.61,7.6,7.66,7.66,0,0,1-5.81,2.48,5.82,5.82,0,0,1-5.38-2.68v9.89h-4.19V25.52q0-3-.15-6.19h3.68l.23,3h.08a7.45,7.45,0,0,1,11.92-.74A10.4,10.4,0,0,1,163.33,28.52Zm-4.26.16a7.77,7.77,0,0,0-1.24-4.54,4.29,4.29,0,0,0-3.65-1.86,4.34,4.34,0,0,0-2.81,1,4.75,4.75,0,0,0-1.65,2.7,5.43,5.43,0,0,0-.19,1.28v3.14a5,5,0,0,0,1.26,3.47,4.18,4.18,0,0,0,3.27,1.41,4.29,4.29,0,0,0,3.68-1.82A8,8,0,0,0,159.06,28.67Z" style="fill:#fff"/><path d="M192.8,30.85a7,7,0,0,1-2.32,5.43,10.29,10.29,0,0,1-7.12,2.29,12.44,12.44,0,0,1-6.77-1.63l1-3.49a11.66,11.66,0,0,0,6.05,1.63A5.7,5.7,0,0,0,187.29,34a3.48,3.48,0,0,0,1.32-2.85,3.64,3.64,0,0,0-1.09-2.68,10.14,10.14,0,0,0-3.61-2q-6.87-2.56-6.86-7.48a6.6,6.6,0,0,1,2.42-5.27,9.58,9.58,0,0,1,6.42-2.06,12.7,12.7,0,0,1,5.93,1.24l-1.05,3.41a10.38,10.38,0,0,0-5-1.2,5.1,5.1,0,0,0-3.46,1.09,3.09,3.09,0,0,0-1.05,2.37,3.2,3.2,0,0,0,1.2,2.56,13.61,13.61,0,0,0,3.8,2,12.87,12.87,0,0,1,5,3.18A6.66,6.66,0,0,1,192.8,30.85Z" style="fill:#fff"/><path d="M206.68,22.47h-4.62v9.15q0,3.49,2.44,3.49a7.45,7.45,0,0,0,1.86-.19l.12,3.18a9.48,9.48,0,0,1-3.26.46,5,5,0,0,1-3.88-1.51Q198,35.54,198,32v-9.5H195.2V19.33H198V15.88l4.11-1.24v4.69h4.62Z" style="fill:#fff"/><path d="M227.46,28.6A10.35,10.35,0,0,1,225,35.73a8.86,8.86,0,0,1-6.9,2.87,8.43,8.43,0,0,1-6.61-2.75A10,10,0,0,1,209,28.91a10.25,10.25,0,0,1,2.54-7.17,8.79,8.79,0,0,1,6.84-2.79,8.61,8.61,0,0,1,6.67,2.75A9.94,9.94,0,0,1,227.46,28.6Zm-4.34.1A8.41,8.41,0,0,0,222,24.25,4.15,4.15,0,0,0,218.23,22a4.2,4.2,0,0,0-3.84,2.24,8.57,8.57,0,0,0-1.12,4.52,8.41,8.41,0,0,0,1.12,4.45,4.23,4.23,0,0,0,3.8,2.24A4.19,4.19,0,0,0,222,33.18,8.39,8.39,0,0,0,223.12,28.69Z" style="fill:#fff"/><path d="M241.07,23a7.08,7.08,0,0,0-1.32-.12,4,4,0,0,0-3.41,1.67,6.28,6.28,0,0,0-1,3.72v9.89h-4.19V25.26q0-3.26-.12-5.93h3.65l.16,3.61h.11A6.42,6.42,0,0,1,237,20a5.06,5.06,0,0,1,3-1,6.35,6.35,0,0,1,1,.08Z" style="fill:#fff"/><path d="M259.8,27.86a10,10,0,0,1-.15,1.9H247.08A5.48,5.48,0,0,0,248.9,34,6.23,6.23,0,0,0,253,35.34a13.86,13.86,0,0,0,5.08-.89l.66,2.91a15.78,15.78,0,0,1-6.32,1.16,9.14,9.14,0,0,1-6.88-2.58A9.51,9.51,0,0,1,243,29a10.82,10.82,0,0,1,2.33-7.1,8,8,0,0,1,6.59-3,7,7,0,0,1,6.17,3A10.17,10.17,0,0,1,259.8,27.86Zm-4-1.09a5.69,5.69,0,0,0-.81-3.22,3.66,3.66,0,0,0-3.34-1.74,4,4,0,0,0-3.34,1.71,6.26,6.26,0,0,0-1.24,3.26Z" style="fill:#fff"/><path d="M102.92,59.84a50.41,50.41,0,0,0,1-6l2.24.29c-.26,1.84-.63,3.72-1.07,5.56.67-.05,1.27-.08,1.77-.08,3.56,0,5.18,1.87,5.18,5.77s-.7,7.52-1.66,9.11a3.39,3.39,0,0,1-3.36,1.74,17.78,17.78,0,0,1-3.77-.44l.16-2.11a11,11,0,0,0,3.17.49,1.81,1.81,0,0,0,1.87-.86c.83-1.22,1.38-4.34,1.38-7.86,0-2.83-.86-3.8-3.09-3.8-.63,0-1.35,0-2.13.08a45.47,45.47,0,0,1-5.7,13.39l-2-1.07a37.61,37.61,0,0,0,5.43-12.15c-1.79.21-3.67.49-5.3.81l-.39-2.08C98.55,60.33,100.84,60,102.92,59.84Zm17.06,9-2.24.55A18.05,18.05,0,0,0,113,59.21L114.8,58A20.32,20.32,0,0,1,120,68.81Z" style="fill:#fff"/><path d="M126.14,67.2a16,16,0,0,1,8.64-3.07c4,0,6.48,1.95,6.48,5.3,0,4.16-3.41,6.79-11.5,6.79-.34,0-.81,0-1.22,0l-.47-2.11c.62,0,1.4.05,1.9.05,6.5,0,9-1.85,9-4.66,0-2.29-1.51-3.49-4.66-3.49-2.68,0-5.75,1.48-8.69,4l-1.79-.78c0-5.62.6-8.32,2.58-11.16l2.05.7C126.63,61.32,126.14,63.69,126.14,67.2Zm-.23-11.34.57-2.08a77.4,77.4,0,0,1,11.65,2.7l-.6,2.06A65.44,65.44,0,0,0,125.9,55.86Z" style="fill:#fff"/><path d="M151.7,62.65a59.11,59.11,0,0,1,6.11,4,21.35,21.35,0,0,0,3.2-7.6h-8.4a32.3,32.3,0,0,1-6.79,7.88l-1.74-1.48a29.16,29.16,0,0,0,8.69-11.65l2.18.75c-.31.78-.7,1.59-1.14,2.45h8.37l1.66.91c-1.82,8.37-6.74,15.4-14.33,18.47l-1.59-1.92a20.38,20.38,0,0,0,8.5-6,44.36,44.36,0,0,0-6.14-4.13ZM162,52.95a20,20,0,0,1,2.73,3.49l-1.17.83a17.46,17.46,0,0,0-2.68-3.46Zm3.38-.76a18.06,18.06,0,0,1,2.7,3.54l-1.22.81A16.06,16.06,0,0,0,164.21,53Z" style="fill:#fff"/><path d="M178.74,58.36v-4.5h2.37v4.5h6.81l2,.81c-.65,7.93-3.77,14.1-12.09,17.11l-1.43-2c7.67-2.6,10.43-7.73,10.82-13.73H173.3v6H171V58.36Z" style="fill:#fff"/><path d="M202.79,60.78l-1.53,1.9A42.69,42.69,0,0,0,194.54,58L196,56.12A60.19,60.19,0,0,1,202.79,60.78Zm10,.05,1.51,1.77c-3.56,5.8-10.87,11.34-18,13.45l-1.17-2.24C202.11,72,209.34,66.65,212.8,60.83Z" style="fill:#fff"/><path d="M237.61,57.16V74.61H219V57.16Zm-2.39,15.21v-13H221.38v13Z" style="fill:#fff"/><path d="M264.13,63.9v2.39H243V63.9Z" style="fill:#fff"/><path d="M285.08,67.62l-1.51,1.92a70.65,70.65,0,0,0-10.33-6V76.22h-2.39V53.86h2.39v7.2A92.72,92.72,0,0,1,285.08,67.62Zm-6.06-11a19,19,0,0,1,2.57,3.46l-1.14.73a16.69,16.69,0,0,0-2.5-3.46ZM281.76,55a21.6,21.6,0,0,1,2.6,3.43l-1.15.73a18.11,18.11,0,0,0-2.52-3.41Z" style="fill:#fff"/></g></g></svg>