<svg xmlns="http://www.w3.org/2000/svg" xmlns:xlink="http://www.w3.org/1999/xlink" viewBox="0 0 300 88.89"><defs><linearGradient id="linear-gradient" x1="48.44" y1="6347.87" x2="11.15" y2="6310.58" gradientTransform="matrix(1, 0, 0, -1, 0, 6367.23)" gradientUnits="userSpaceOnUse"><stop offset="0" stop-color="#00a0ff"/><stop offset="0.01" stop-color="#00a1ff"/><stop offset="0.26" stop-color="#00beff"/><stop offset="0.51" stop-color="#00d2ff"/><stop offset="0.76" stop-color="#00dfff"/><stop offset="1" stop-color="#00e3ff"/></linearGradient><linearGradient id="linear-gradient-2" x1="75.19" y1="6322.78" x2="21.42" y2="6322.78" gradientTransform="matrix(1, 0, 0, -1, 0, 6367.23)" gradientUnits="userSpaceOnUse"><stop offset="0" stop-color="#ffe000"/><stop offset="0.41" stop-color="#ffbd00"/><stop offset="0.78" stop-color="orange"/><stop offset="1" stop-color="#ff9c00"/></linearGradient><linearGradient id="linear-gradient-3" x1="55.17" y1="6317.68" x2="4.6" y2="6267.11" gradientTransform="matrix(1, 0, 0, -1, 0, 6367.23)" gradientUnits="userSpaceOnUse"><stop offset="0" stop-color="#ff3a44"/><stop offset="1" stop-color="#c31162"/></linearGradient><linearGradient id="linear-gradient-4" x1="16.22" y1="6366.84" x2="38.8" y2="6344.25" gradientTransform="matrix(1, 0, 0, -1, 0, 6367.23)" gradientUnits="userSpaceOnUse"><stop offset="0" stop-color="#32a071"/><stop offset="0.07" stop-color="#2da771"/><stop offset="0.48" stop-color="#15cf74"/><stop offset="0.8" stop-color="#06e775"/><stop offset="1" stop-color="#00f076"/></linearGradient></defs><title>アセット 31</title><g id="レイヤー_2" data-name="レイヤー 2"><g id="PC"><rect width="300" height="88.89" rx="11.11" ry="11.11"/><path d="M288.89,1.78a9.34,9.34,0,0,1,9.33,9.33V77.78a9.34,9.34,0,0,1-9.33,9.33H11.11a9.34,9.34,0,0,1-9.33-9.33V11.11a9.34,9.34,0,0,1,9.33-9.33H288.89m0-1.78H11.11A11.14,11.14,0,0,0,0,11.11V77.78A11.14,11.14,0,0,0,11.11,88.89H288.89A11.14,11.14,0,0,0,300,77.78V11.11A11.14,11.14,0,0,0,288.89,0Z" style="fill:#a6a6a6"/><path d="M143.83,28.42a8.26,8.26,0,1,0,8.29,8.26A8.14,8.14,0,0,0,143.83,28.42Zm0,13.27a4.78,4.78,0,0,1-4.66-5,4.67,4.67,0,1,1,9.33,0A4.78,4.78,0,0,1,143.83,41.69ZM125.74,28.42A8.26,8.26,0,1,0,134,36.68,8.14,8.14,0,0,0,125.74,28.42Zm0,13.27a4.78,4.78,0,0,1-4.66-5,4.67,4.67,0,1,1,9.33,0A4.78,4.78,0,0,1,125.74,41.69ZM104.22,31v3.5h8.39a7.31,7.31,0,0,1-1.91,4.41,8.59,8.59,0,0,1-6.48,2.57,9.33,9.33,0,0,1,0-18.65,8.94,8.94,0,0,1,6.32,2.5L113,22.82a12.23,12.23,0,0,0-8.79-3.54,13,13,0,0,0-13,12.83,13,13,0,0,0,13,12.83,11.73,11.73,0,0,0,8.95-3.6,11.58,11.58,0,0,0,3-8.2A11.42,11.42,0,0,0,116,31Zm88,2.72c-.69-1.85-2.79-5.26-7.07-5.26s-7.79,3.35-7.79,8.26a8.08,8.08,0,0,0,8.2,8.26,8.22,8.22,0,0,0,6.88-3.66l-2.82-1.88a4.72,4.72,0,0,1-4.07,2.28,4.2,4.2,0,0,1-4-2.5l11-4.57ZM181,36.43a4.53,4.53,0,0,1,4.32-4.82,3.2,3.2,0,0,1,3.07,1.75Zm-9,8h3.63V20.16H172ZM166,30.27h-.13a5.72,5.72,0,0,0-4.35-1.85,8.27,8.27,0,0,0,0,16.52,5.63,5.63,0,0,0,4.35-1.88H166v1.19c0,3.16-1.69,4.85-4.41,4.85a4.57,4.57,0,0,1-4.16-2.94l-3.16,1.31a7.87,7.87,0,0,0,7.32,4.88c4.26,0,7.85-2.5,7.85-8.61V28.92H166Zm-4.16,11.42a4.74,4.74,0,0,1-4.6-5,4.78,4.78,0,0,1,4.6-5c2.47,0,4.41,2.13,4.41,5S164.35,41.69,161.88,41.69Zm47.36-21.53h-8.68V44.44h3.62v-9.2h5.06c4,0,8-2.91,8-7.54S213.25,20.16,209.23,20.16Zm.09,11.7h-5.15V23.54h5.15a4.16,4.16,0,1,1,0,8.32Zm22.4-3.49c-2.62,0-5.34,1.16-6.47,3.72l3.22,1.34a3.43,3.43,0,0,1,3.31-1.78c1.87,0,3.78,1.12,3.81,3.12V35a8,8,0,0,0-3.78-.94c-3.47,0-7,1.91-7,5.47,0,3.25,2.84,5.34,6,5.34a5.11,5.11,0,0,0,4.62-2.37h.12V44.4h3.5V35.09C239.1,30.78,235.88,28.38,231.73,28.38Zm-.44,13.31c-1.19,0-2.84-.59-2.84-2.06,0-1.87,2.06-2.59,3.84-2.59a6.46,6.46,0,0,1,3.31.81A4.39,4.39,0,0,1,231.29,41.69Zm20.56-12.78-4.15,10.53h-.12l-4.31-10.53h-3.9l6.47,14.71-3.69,8.19h3.78l10-22.9ZM219.2,44.44h3.62V20.16H219.2Z" style="fill:#fff"/><path d="M23.19,16.75a4.45,4.45,0,0,0-1,3.12V69a4.45,4.45,0,0,0,1,3.12l.16.16L50.89,44.77v-.65L23.35,16.59Z" style="fill:url(#linear-gradient)"/><path d="M60.06,54l-9.18-9.18v-.65l9.18-9.18.21.12,10.87,6.18c3.11,1.76,3.11,4.65,0,6.42L60.27,53.83Z" style="fill:url(#linear-gradient-2)"/><path d="M60.27,53.83l-9.39-9.39-27.7,27.7c1,1.08,2.71,1.22,4.62.14L60.27,53.83" style="fill:url(#linear-gradient-3)"/><path d="M60.27,35.06,27.81,16.61c-1.9-1.08-3.59-.95-4.62.14l27.7,27.7Z" style="fill:url(#linear-gradient-4)"/><path d="M60.06,53.63,27.81,72c-1.8,1-3.42,1-4.45,0h0l-.17.17h0l.16.16h0c1,.93,2.65,1,4.45,0L60.27,53.83Z" style="opacity:0.2;isolation:isolate"/><path d="M23.19,71.82a4.45,4.45,0,0,1-1-3.12V69a4.45,4.45,0,0,0,1,3.12l.17-.17Z" style="opacity:0.12;isolation:isolate"/><path d="M71.14,47.33l-11.08,6.3.21.21,10.87-6.18c1.55-.88,2.33-2,2.33-3.21h0A4.14,4.14,0,0,1,71.14,47.33Z" style="opacity:0.12;isolation:isolate"/><path d="M27.81,16.94,71.14,41.56a4.14,4.14,0,0,1,2.33,2.88h0c0-1.16-.78-2.33-2.33-3.21L27.81,16.62c-3.11-1.76-5.65-.3-5.65,3.26v.32C22.16,16.64,24.7,15.18,27.81,16.94Z" style="fill:#fff;opacity:0.25;isolation:isolate"/><path d="M92.89,60.06c1.3-.12,5-.48,8.68-.8,2.16-.18,4-.28,5.34-.34v1.6a16.33,16.33,0,0,0-3.88.32,6.93,6.93,0,0,0-4.52,6.26c0,3.86,3.6,5.08,6.82,5.2L104.75,74c-3.66-.16-7.84-2.12-7.84-6.54a8,8,0,0,1,3.68-6.68c-1.74.2-7.14.72-9.28,1.16l-.18-1.76C91.89,60.14,92.51,60.1,92.89,60.06Zm12.86,5.66-1,.48a18.64,18.64,0,0,0-1.64-2.82l1-.44A23.81,23.81,0,0,1,105.75,65.73Zm2.28-.86-1,.48a17.71,17.71,0,0,0-1.7-2.78l1-.46A30,30,0,0,1,108,64.87Z" style="fill:#fff;stroke:#fff;stroke-miterlimit:10;stroke-width:0.2px"/><path d="M127.9,68.35h-8.2v4.44c0,1.06-.32,1.5-1.06,1.74a15.55,15.55,0,0,1-4.12.26,7.41,7.41,0,0,0-.64-1.48c1.68.06,3.24,0,3.7,0s.62-.14.62-.56V68.35H110V66.89h8.22V63.64h-6.88V62.22h6.88V59.14c-2.2.24-4.46.38-6.52.48a6.73,6.73,0,0,0-.38-1.32c4.72-.22,10.52-.74,13.52-1.68l1.12,1.18A37.56,37.56,0,0,1,119.7,59v3.24h7.08v1.42H119.7v3.24h8.2Z" style="fill:#fff;stroke:#fff;stroke-miterlimit:10;stroke-width:0.2px"/><path d="M134,58.32c-.12.34-.3,1-.38,1.34a45.61,45.61,0,0,0-1,7.58,20.65,20.65,0,0,0,.16,2.72c.34-.9.78-2.06,1.1-2.84l.86.64a43.18,43.18,0,0,0-1.4,4.44,5,5,0,0,0-.1.88l.06.7-1.44.1a24.79,24.79,0,0,1-.72-6.36,55.1,55.1,0,0,1,.88-7.94,11.68,11.68,0,0,0,.14-1.4Zm4.52,9.6a7.36,7.36,0,0,0-.26,1.82c0,.9.6,1.78,3.32,1.78a21.54,21.54,0,0,0,4.9-.52l0,1.68a26.24,26.24,0,0,1-4.94.4c-3.32,0-4.8-1.1-4.8-3a11.47,11.47,0,0,1,.32-2.34Zm-.78-8.08a34.64,34.64,0,0,0,8.14,0v1.64a50.27,50.27,0,0,1-8.12,0Z" style="fill:#fff;stroke:#fff;stroke-miterlimit:10;stroke-width:0.2px"/><path d="M159.26,57.8c0,3.54.46,11.08,8.3,15.74a7.08,7.08,0,0,0-1.2,1.24,17.26,17.26,0,0,1-7.94-11.14c-1.48,5.18-4,8.82-8,11.16a9.69,9.69,0,0,0-1.34-1.18c4.42-2.3,6.88-6.32,8.1-11.92l.88.14c-.14-.92-.22-1.8-.26-2.56H152.9V57.8Z" style="fill:#fff;stroke:#fff;stroke-miterlimit:10;stroke-width:0.2px"/><path d="M187,71.73a5.07,5.07,0,0,1-3.64,1.66c-1.3,0-2.2-.88-2.2-2.52,0-2.2.74-5.46.74-7.38a1.41,1.41,0,0,0-1.58-1.62c-1.6,0-4,1.86-5.82,3.82,0,.84-.06,1.62-.06,2.32,0,1.8,0,3,.08,4.78,0,.34.06.84.1,1.2h-1.74c0-.28.06-.86.06-1.18,0-1.9,0-2.88.06-5.08,0-.2,0-.46,0-.76-1,1.46-2.26,3.36-3.22,4.68l-1-1.38c1.1-1.38,3.38-4.46,4.38-6,0-.64.08-1.28.12-1.9-.9.1-2.62.34-3.86.5l-.16-1.66a9,9,0,0,0,1.3,0c.64,0,1.8-.16,2.82-.32.06-.94.1-1.64.1-1.86a7.37,7.37,0,0,0-.08-1.48l1.9.06c-.1.48-.26,1.6-.4,3l.1,0,.58.7c-.24.36-.58.9-.88,1.38,0,.36-.06.74-.1,1.12,1.54-1.42,4.08-3.32,6.06-3.32a2.48,2.48,0,0,1,2.8,2.66c0,2-.74,5.4-.74,7.4,0,.68.32,1.2,1,1.2a4.36,4.36,0,0,0,3-1.64Z" style="fill:#fff;stroke:#fff;stroke-miterlimit:10;stroke-width:0.2px"/><path d="M198.21,63.26c0,1.3.1,3.22.2,4.94a15.71,15.71,0,0,1,6.16,3.38l-1,1.48a13.85,13.85,0,0,0-5.14-3.26c0,.52,0,1,0,1.32,0,1.62-1,3-3.64,3s-4.74-.88-4.74-3.14c0-1.78,1.56-3.26,5-3.26a11.83,11.83,0,0,1,1.68.12c-.08-1.6-.16-3.42-.16-4.6s0-2.78,0-3.62a14.84,14.84,0,0,0-.16-2h1.92a17.13,17.13,0,0,0-.16,2c0,.54,0,1.24,0,2,1.58,0,4.08-.14,5.86-.38l.06,1.52c-1.76.16-4.3.28-5.92.32Zm-1.36,6.1a9,9,0,0,0-1.94-.2c-2,0-3.2.7-3.2,1.78s1.1,1.7,3,1.7c1.46,0,2.16-.68,2.16-2C196.86,70.29,196.84,69.87,196.84,69.37Z" style="fill:#fff;stroke:#fff;stroke-miterlimit:10;stroke-width:0.2px"/><path d="M216.47,63.78a18.43,18.43,0,0,0-5.4,1c-.6.16-1.18.4-1.66.58l-.5-1.84c.54-.06,1.22-.18,1.8-.3a26.32,26.32,0,0,1,5.92-1c2.82,0,4.92,1.58,4.92,4.4,0,4.3-3.82,6.74-9,7.5l-.94-1.52c4.8-.6,8.2-2.48,8.2-6C219.85,65,218.51,63.78,216.47,63.78Zm3.5-5.16-.24,1.54c-2.2-.14-6.2-.54-8.44-.94l.26-1.52A52.9,52.9,0,0,0,220,58.62Z" style="fill:#fff;stroke:#fff;stroke-miterlimit:10;stroke-width:0.2px"/></g></g></svg>